<svg xmlns="http://www.w3.org/2000/svg" viewBox="0 0 135.33 51.96"><defs><style>.cls-1{fill:none;}.cls-2,.cls-4{fill:#fff;}.cls-3,.cls-4{isolation:isolate;font-weight:700;}.cls-3{font-size:13.13px;font-family:CourierNewPS-BoldMT, Courier New;}.cls-4{font-size:33px;font-family:Raleway-Bold, Raleway;}</style></defs><title>Ресурс 2100</title><g id="Слой_2" data-name="Слой 2"><g id="Слой_1-2" data-name="Слой 1"><g id="Слой_2-2" data-name="Слой 2"><g id="Слой_1-2-2" data-name="Слой 1-2"><rect class="cls-1" y="0.42" width="135.33" height="47.47"/><rect x="2.02" y="2.44" width="131.71" height="43.43"/><rect class="cls-2" x="45.45" y="32.73" width="86.86" height="11.11"/><text class="cls-3" transform="translate(46.58 42.63) scale(1.81 1)">online</text><path class="cls-2" d="M4.83,4.73h5.53V44.12H4.83ZM8.57,38.88H17.5a9.49,9.49,0,0,0,6.77-2.27,8.33,8.33,0,0,0,2.39-6.38V18.62a8.34,8.34,0,0,0-2.39-6.39A9.44,9.44,0,0,0,17.5,10H8.57V4.73h8.76a18.16,18.16,0,0,1,8.08,1.65,11.55,11.55,0,0,1,5.13,4.82,15.62,15.62,0,0,1,1.8,7.67V30a15.65,15.65,0,0,1-1.77,7.65,11.54,11.54,0,0,1-5.14,4.83,18.3,18.3,0,0,1-8.08,1.65H8.57Z"/><path class="cls-2" d="M22.22,43.72a9.36,9.36,0,0,1-4-4.19,14.56,14.56,0,0,1-1.37-6.62V28.32a14.24,14.24,0,0,1,1.37-6.55,9.37,9.37,0,0,1,4-4.15,13.08,13.08,0,0,1,6.26-1.43,12.89,12.89,0,0,1,6.27,1.43,9.37,9.37,0,0,1,4,4.15,14.38,14.38,0,0,1,1.38,6.55V33a14.46,14.46,0,0,1-1.38,6.57,9.39,9.39,0,0,1-4,4.16,12.77,12.77,0,0,1-6.27,1.39A12.72,12.72,0,0,1,22.22,43.72ZM33,38.06A7.5,7.5,0,0,0,34.56,33V28.32A7.33,7.33,0,0,0,33,23.27a5.69,5.69,0,0,0-4.49-1.79A5.67,5.67,0,0,0,24,23.27a7.38,7.38,0,0,0-1.59,5.05V33A7.5,7.5,0,0,0,24,38.06a5.65,5.65,0,0,0,4.48,1.82A5.63,5.63,0,0,0,33,38.06Z"/><text class="cls-4" transform="translate(45.15 28.21) scale(0.64 1)">dreamer</text></g></g></g></g></svg>